<mxfile host="app.diagrams.net" modified="2022-05-31T15:27:32.651Z" agent="5.0 (Windows NT 10.0; Win64; x64) AppleWebKit/537.36 (KHTML, like Gecko) Chrome/101.0.4951.67 Safari/537.36" etag="lmkSBGUkl9gIOOAyu93f" version="18.1.3" type="github">
  <diagram name="Page-1" id="e3a06f82-3646-2815-327d-82caf3d4e204">
    <mxGraphModel dx="2062" dy="737" grid="1" gridSize="10" guides="1" tooltips="1" connect="1" arrows="1" fold="1" page="1" pageScale="1.5" pageWidth="1169" pageHeight="826" background="none" math="0" shadow="0">
      <root>
        <mxCell id="0" style=";html=1;" />
        <mxCell id="1" style=";html=1;" parent="0" />
        <mxCell id="6a7d8f32e03d9370-62" value="Trilha de Auditoria" style="text;strokeColor=none;fillColor=none;html=1;fontSize=24;fontStyle=1;verticalAlign=middle;align=center;" parent="1" vertex="1">
          <mxGeometry x="499" y="30" width="861" height="40" as="geometry" />
        </mxCell>
        <mxCell id="8hZSfJT7vyOLuqcYr-60-1" value="" style="verticalLabelPosition=bottom;sketch=0;aspect=fixed;html=1;verticalAlign=top;strokeColor=none;align=center;outlineConnect=0;shape=mxgraph.citrix.document;" vertex="1" parent="1">
          <mxGeometry x="770" y="246.5" width="47" height="72" as="geometry" />
        </mxCell>
        <mxCell id="8hZSfJT7vyOLuqcYr-60-2" value="" style="verticalLabelPosition=bottom;sketch=0;aspect=fixed;html=1;verticalAlign=top;strokeColor=none;align=center;outlineConnect=0;shape=mxgraph.citrix.laptop_2;" vertex="1" parent="1">
          <mxGeometry x="20" y="238.5" width="116" height="86.5" as="geometry" />
        </mxCell>
        <mxCell id="8hZSfJT7vyOLuqcYr-60-15" value="" style="edgeStyle=orthogonalEdgeStyle;rounded=0;orthogonalLoop=1;jettySize=auto;html=1;" edge="1" parent="1" source="8hZSfJT7vyOLuqcYr-60-3" target="8hZSfJT7vyOLuqcYr-60-1">
          <mxGeometry relative="1" as="geometry">
            <mxPoint x="555" y="282.5" as="targetPoint" />
          </mxGeometry>
        </mxCell>
        <mxCell id="8hZSfJT7vyOLuqcYr-60-21" value="" style="edgeStyle=orthogonalEdgeStyle;rounded=0;orthogonalLoop=1;jettySize=auto;html=1;" edge="1" parent="1" source="8hZSfJT7vyOLuqcYr-60-3" target="8hZSfJT7vyOLuqcYr-60-10">
          <mxGeometry relative="1" as="geometry">
            <mxPoint x="442.5" y="417.5" as="targetPoint" />
          </mxGeometry>
        </mxCell>
        <mxCell id="8hZSfJT7vyOLuqcYr-60-3" value="" style="verticalLabelPosition=bottom;sketch=0;aspect=fixed;html=1;verticalAlign=top;strokeColor=none;align=center;outlineConnect=0;shape=mxgraph.citrix.license_server;" vertex="1" parent="1">
          <mxGeometry x="410" y="240" width="65" height="85" as="geometry" />
        </mxCell>
        <mxCell id="8hZSfJT7vyOLuqcYr-60-4" value="TOL" style="text;html=1;align=center;verticalAlign=middle;resizable=0;points=[];autosize=1;strokeColor=none;fillColor=none;" vertex="1" parent="1">
          <mxGeometry x="58" y="210" width="40" height="20" as="geometry" />
        </mxCell>
        <mxCell id="8hZSfJT7vyOLuqcYr-60-5" value="ORQ" style="text;html=1;align=center;verticalAlign=middle;resizable=0;points=[];autosize=1;strokeColor=none;fillColor=none;" vertex="1" parent="1">
          <mxGeometry x="422.5" y="210" width="40" height="20" as="geometry" />
        </mxCell>
        <mxCell id="8hZSfJT7vyOLuqcYr-60-6" value="FILA CONSENTS" style="text;html=1;align=center;verticalAlign=middle;resizable=0;points=[];autosize=1;strokeColor=none;fillColor=none;" vertex="1" parent="1">
          <mxGeometry x="738.5" y="215" width="110" height="20" as="geometry" />
        </mxCell>
        <mxCell id="8hZSfJT7vyOLuqcYr-60-28" value="" style="edgeStyle=orthogonalEdgeStyle;rounded=0;orthogonalLoop=1;jettySize=auto;html=1;" edge="1" parent="1" source="8hZSfJT7vyOLuqcYr-60-8" target="8hZSfJT7vyOLuqcYr-60-1">
          <mxGeometry relative="1" as="geometry">
            <mxPoint x="960" y="210" as="sourcePoint" />
            <mxPoint x="1001.75" y="425" as="targetPoint" />
            <Array as="points">
              <mxPoint x="982" y="290" />
            </Array>
          </mxGeometry>
        </mxCell>
        <mxCell id="8hZSfJT7vyOLuqcYr-60-30" value="" style="edgeStyle=orthogonalEdgeStyle;rounded=0;orthogonalLoop=1;jettySize=auto;html=1;" edge="1" parent="1" source="8hZSfJT7vyOLuqcYr-60-8" target="8hZSfJT7vyOLuqcYr-60-12">
          <mxGeometry relative="1" as="geometry">
            <mxPoint x="950" y="480" as="sourcePoint" />
            <mxPoint x="1098.3000000000002" y="565" as="targetPoint" />
            <Array as="points">
              <mxPoint x="970" y="560" />
            </Array>
          </mxGeometry>
        </mxCell>
        <mxCell id="8hZSfJT7vyOLuqcYr-60-57" value="" style="edgeStyle=orthogonalEdgeStyle;rounded=0;orthogonalLoop=1;jettySize=auto;html=1;" edge="1" parent="1" source="8hZSfJT7vyOLuqcYr-60-8" target="8hZSfJT7vyOLuqcYr-60-37">
          <mxGeometry relative="1" as="geometry">
            <mxPoint x="1194.75" y="425" as="targetPoint" />
          </mxGeometry>
        </mxCell>
        <mxCell id="8hZSfJT7vyOLuqcYr-60-60" value="" style="edgeStyle=orthogonalEdgeStyle;rounded=0;orthogonalLoop=1;jettySize=auto;html=1;" edge="1" parent="1" source="8hZSfJT7vyOLuqcYr-60-8" target="8hZSfJT7vyOLuqcYr-60-61">
          <mxGeometry relative="1" as="geometry">
            <mxPoint x="1160" y="590" as="targetPoint" />
            <Array as="points">
              <mxPoint x="982" y="560" />
              <mxPoint x="1160" y="560" />
            </Array>
          </mxGeometry>
        </mxCell>
        <mxCell id="8hZSfJT7vyOLuqcYr-60-8" value="" style="verticalLabelPosition=bottom;sketch=0;aspect=fixed;html=1;verticalAlign=top;strokeColor=none;align=center;outlineConnect=0;shape=mxgraph.citrix.xenserver;" vertex="1" parent="1">
          <mxGeometry x="943.5" y="380" width="76.5" height="90" as="geometry" />
        </mxCell>
        <mxCell id="8hZSfJT7vyOLuqcYr-60-9" value="MICROSERVICES AUD&lt;br&gt;&amp;nbsp;RABBITMQ" style="text;html=1;align=center;verticalAlign=middle;resizable=0;points=[];autosize=1;strokeColor=none;fillColor=none;" vertex="1" parent="1">
          <mxGeometry x="911.75" y="340" width="140" height="30" as="geometry" />
        </mxCell>
        <mxCell id="8hZSfJT7vyOLuqcYr-60-24" value="" style="edgeStyle=orthogonalEdgeStyle;rounded=0;orthogonalLoop=1;jettySize=auto;html=1;" edge="1" parent="1" source="8hZSfJT7vyOLuqcYr-60-10" target="8hZSfJT7vyOLuqcYr-60-12">
          <mxGeometry relative="1" as="geometry">
            <mxPoint x="527.5" y="552.5" as="targetPoint" />
          </mxGeometry>
        </mxCell>
        <mxCell id="8hZSfJT7vyOLuqcYr-60-10" value="" style="verticalLabelPosition=bottom;sketch=0;aspect=fixed;html=1;verticalAlign=top;strokeColor=none;align=center;outlineConnect=0;shape=mxgraph.citrix.license_server;" vertex="1" parent="1">
          <mxGeometry x="410" y="510" width="65" height="85" as="geometry" />
        </mxCell>
        <mxCell id="8hZSfJT7vyOLuqcYr-60-11" value="MICROSERVICES PAGAMENTO" style="text;html=1;align=center;verticalAlign=middle;resizable=0;points=[];autosize=1;strokeColor=none;fillColor=none;" vertex="1" parent="1">
          <mxGeometry x="347.5" y="480" width="190" height="20" as="geometry" />
        </mxCell>
        <mxCell id="8hZSfJT7vyOLuqcYr-60-12" value="" style="verticalLabelPosition=bottom;sketch=0;aspect=fixed;html=1;verticalAlign=top;strokeColor=none;align=center;outlineConnect=0;shape=mxgraph.citrix.document;" vertex="1" parent="1">
          <mxGeometry x="770" y="516.5" width="47" height="72" as="geometry" />
        </mxCell>
        <mxCell id="8hZSfJT7vyOLuqcYr-60-13" value="FILA DE PAGAMENTO" style="text;html=1;align=center;verticalAlign=middle;resizable=0;points=[];autosize=1;strokeColor=none;fillColor=none;" vertex="1" parent="1">
          <mxGeometry x="723.5" y="490" width="140" height="20" as="geometry" />
        </mxCell>
        <mxCell id="8hZSfJT7vyOLuqcYr-60-18" value="" style="edgeStyle=orthogonalEdgeStyle;rounded=0;orthogonalLoop=1;jettySize=auto;html=1;" edge="1" parent="1" source="8hZSfJT7vyOLuqcYr-60-2" target="8hZSfJT7vyOLuqcYr-60-3">
          <mxGeometry relative="1" as="geometry">
            <mxPoint x="180" y="282.75" as="sourcePoint" />
            <mxPoint x="395" y="282.75" as="targetPoint" />
          </mxGeometry>
        </mxCell>
        <mxCell id="8hZSfJT7vyOLuqcYr-60-19" value="CONSENTIMENTO ACEITO / CANCELADA" style="text;html=1;align=center;verticalAlign=middle;resizable=0;points=[];autosize=1;strokeColor=none;fillColor=none;" vertex="1" parent="1">
          <mxGeometry x="150" y="260" width="250" height="20" as="geometry" />
        </mxCell>
        <mxCell id="8hZSfJT7vyOLuqcYr-60-22" value="CONSENTIMENTO ACEITO" style="text;html=1;align=center;verticalAlign=middle;resizable=0;points=[];autosize=1;strokeColor=none;fillColor=none;" vertex="1" parent="1">
          <mxGeometry x="357.5" y="390" width="170" height="20" as="geometry" />
        </mxCell>
        <mxCell id="8hZSfJT7vyOLuqcYr-60-25" value="PAGAMENTO FINALIZADO" style="text;html=1;align=center;verticalAlign=middle;resizable=0;points=[];autosize=1;strokeColor=none;fillColor=none;" vertex="1" parent="1">
          <mxGeometry x="527.5" y="530" width="170" height="20" as="geometry" />
        </mxCell>
        <mxCell id="8hZSfJT7vyOLuqcYr-60-26" value="CONSENTIMENTO ACEITO / CANCELADA" style="text;html=1;align=center;verticalAlign=middle;resizable=0;points=[];autosize=1;strokeColor=none;fillColor=none;" vertex="1" parent="1">
          <mxGeometry x="499" y="260" width="250" height="20" as="geometry" />
        </mxCell>
        <mxCell id="8hZSfJT7vyOLuqcYr-60-63" value="" style="edgeStyle=orthogonalEdgeStyle;rounded=0;orthogonalLoop=1;jettySize=auto;html=1;" edge="1" parent="1" source="8hZSfJT7vyOLuqcYr-60-31" target="8hZSfJT7vyOLuqcYr-60-61">
          <mxGeometry relative="1" as="geometry">
            <mxPoint x="1583.75" y="300" as="targetPoint" />
            <Array as="points">
              <mxPoint x="1680" y="300" />
              <mxPoint x="1680" y="750" />
              <mxPoint x="1160" y="750" />
            </Array>
          </mxGeometry>
        </mxCell>
        <mxCell id="8hZSfJT7vyOLuqcYr-60-31" value="" style="verticalLabelPosition=bottom;sketch=0;aspect=fixed;html=1;verticalAlign=top;strokeColor=none;align=center;outlineConnect=0;shape=mxgraph.citrix.database;" vertex="1" parent="1">
          <mxGeometry x="1500" y="275" width="42.5" height="50" as="geometry" />
        </mxCell>
        <mxCell id="8hZSfJT7vyOLuqcYr-60-34" value="BANCO DE DADOS" style="text;html=1;align=center;verticalAlign=middle;resizable=0;points=[];autosize=1;strokeColor=none;fillColor=none;" vertex="1" parent="1">
          <mxGeometry x="1461.25" y="255" width="120" height="20" as="geometry" />
        </mxCell>
        <mxCell id="8hZSfJT7vyOLuqcYr-60-41" value="" style="edgeStyle=orthogonalEdgeStyle;rounded=0;orthogonalLoop=1;jettySize=auto;html=1;" edge="1" parent="1" source="8hZSfJT7vyOLuqcYr-60-37" target="8hZSfJT7vyOLuqcYr-60-38">
          <mxGeometry relative="1" as="geometry" />
        </mxCell>
        <mxCell id="8hZSfJT7vyOLuqcYr-60-43" value="" style="edgeStyle=orthogonalEdgeStyle;rounded=0;orthogonalLoop=1;jettySize=auto;html=1;" edge="1" parent="1" source="8hZSfJT7vyOLuqcYr-60-37" target="8hZSfJT7vyOLuqcYr-60-42">
          <mxGeometry relative="1" as="geometry" />
        </mxCell>
        <mxCell id="8hZSfJT7vyOLuqcYr-60-66" style="edgeStyle=none;rounded=0;orthogonalLoop=1;jettySize=auto;html=1;exitX=0;exitY=0;exitDx=0;exitDy=0;" edge="1" parent="1" source="8hZSfJT7vyOLuqcYr-60-37" target="8hZSfJT7vyOLuqcYr-60-67">
          <mxGeometry relative="1" as="geometry">
            <mxPoint x="1170" y="200" as="targetPoint" />
          </mxGeometry>
        </mxCell>
        <mxCell id="8hZSfJT7vyOLuqcYr-60-37" value="CONSENTIMENTO ACEITO" style="shape=tapeData;whiteSpace=wrap;html=1;perimeter=ellipsePerimeter;" vertex="1" parent="1">
          <mxGeometry x="1310" y="395" width="60" height="60" as="geometry" />
        </mxCell>
        <mxCell id="8hZSfJT7vyOLuqcYr-60-47" value="" style="edgeStyle=orthogonalEdgeStyle;rounded=0;orthogonalLoop=1;jettySize=auto;html=1;" edge="1" parent="1" source="8hZSfJT7vyOLuqcYr-60-38" target="8hZSfJT7vyOLuqcYr-60-31">
          <mxGeometry relative="1" as="geometry">
            <mxPoint x="1400" y="340" as="targetPoint" />
          </mxGeometry>
        </mxCell>
        <mxCell id="8hZSfJT7vyOLuqcYr-60-38" value="SIM" style="shape=ext;double=1;rounded=0;whiteSpace=wrap;html=1;" vertex="1" parent="1">
          <mxGeometry x="1320" y="285" width="40" height="30" as="geometry" />
        </mxCell>
        <mxCell id="8hZSfJT7vyOLuqcYr-60-45" value="" style="edgeStyle=orthogonalEdgeStyle;rounded=0;orthogonalLoop=1;jettySize=auto;html=1;" edge="1" parent="1" source="8hZSfJT7vyOLuqcYr-60-42" target="8hZSfJT7vyOLuqcYr-60-31">
          <mxGeometry relative="1" as="geometry">
            <mxPoint x="1460" y="340" as="targetPoint" />
          </mxGeometry>
        </mxCell>
        <mxCell id="8hZSfJT7vyOLuqcYr-60-51" value="" style="edgeStyle=orthogonalEdgeStyle;rounded=0;orthogonalLoop=1;jettySize=auto;html=1;" edge="1" parent="1" source="8hZSfJT7vyOLuqcYr-60-42" target="8hZSfJT7vyOLuqcYr-60-48">
          <mxGeometry relative="1" as="geometry">
            <mxPoint x="1460" y="500" as="targetPoint" />
          </mxGeometry>
        </mxCell>
        <mxCell id="8hZSfJT7vyOLuqcYr-60-42" value="NÃO" style="shape=ext;double=1;rounded=0;whiteSpace=wrap;html=1;" vertex="1" parent="1">
          <mxGeometry x="1440" y="410" width="40" height="30" as="geometry" />
        </mxCell>
        <mxCell id="8hZSfJT7vyOLuqcYr-60-48" value="" style="verticalLabelPosition=bottom;sketch=0;aspect=fixed;html=1;verticalAlign=top;strokeColor=none;align=center;outlineConnect=0;shape=mxgraph.citrix.license_server;" vertex="1" parent="1">
          <mxGeometry x="1427.5" y="607.5" width="65" height="85" as="geometry" />
        </mxCell>
        <mxCell id="8hZSfJT7vyOLuqcYr-60-49" value="GERAR PDF AUDITORIA" style="text;html=1;align=center;verticalAlign=middle;resizable=0;points=[];autosize=1;strokeColor=none;fillColor=none;" vertex="1" parent="1">
          <mxGeometry x="1385" y="568.5" width="150" height="20" as="geometry" />
        </mxCell>
        <mxCell id="8hZSfJT7vyOLuqcYr-60-58" value="PROCESSAR FILA CONSENTS" style="text;html=1;align=center;verticalAlign=middle;resizable=0;points=[];autosize=1;strokeColor=none;fillColor=none;" vertex="1" parent="1">
          <mxGeometry x="1070" y="395" width="190" height="20" as="geometry" />
        </mxCell>
        <mxCell id="8hZSfJT7vyOLuqcYr-60-65" value="" style="edgeStyle=orthogonalEdgeStyle;rounded=0;orthogonalLoop=1;jettySize=auto;html=1;" edge="1" parent="1" source="8hZSfJT7vyOLuqcYr-60-61" target="8hZSfJT7vyOLuqcYr-60-48">
          <mxGeometry relative="1" as="geometry">
            <mxPoint x="1240" y="650" as="targetPoint" />
          </mxGeometry>
        </mxCell>
        <mxCell id="8hZSfJT7vyOLuqcYr-60-69" style="edgeStyle=none;rounded=0;orthogonalLoop=1;jettySize=auto;html=1;exitX=0;exitY=0.5;exitDx=0;exitDy=0;entryX=1;entryY=0.5;entryDx=0;entryDy=0;" edge="1" parent="1" source="8hZSfJT7vyOLuqcYr-60-61" target="8hZSfJT7vyOLuqcYr-60-68">
          <mxGeometry relative="1" as="geometry" />
        </mxCell>
        <mxCell id="8hZSfJT7vyOLuqcYr-60-61" value="PAGAMENTO FINALIZADO" style="shape=tapeData;whiteSpace=wrap;html=1;perimeter=ellipsePerimeter;" vertex="1" parent="1">
          <mxGeometry x="1130" y="620" width="60" height="60" as="geometry" />
        </mxCell>
        <mxCell id="8hZSfJT7vyOLuqcYr-60-67" value="PROCESSANDO FILA DE CONSENTIMENTO E VERIFICANDO SE CONSENTIMENTO FOI ACEITO OU NÃO" style="shape=ext;double=1;rounded=1;whiteSpace=wrap;html=1;" vertex="1" parent="1">
          <mxGeometry x="1000" y="110" width="230" height="130" as="geometry" />
        </mxCell>
        <mxCell id="8hZSfJT7vyOLuqcYr-60-68" value="PROCESSANDO FILA DE PAGAMENTO E MESCLANDO OS DADOS SALVO NO BANCO COM OS DADOS DA FILA." style="shape=ext;double=1;rounded=1;whiteSpace=wrap;html=1;" vertex="1" parent="1">
          <mxGeometry x="723.5" y="620" width="230" height="130" as="geometry" />
        </mxCell>
        <mxCell id="8hZSfJT7vyOLuqcYr-60-70" value="PROCESSAR FILA&amp;nbsp; PAGAMENTO" style="text;html=1;align=center;verticalAlign=middle;resizable=0;points=[];autosize=1;strokeColor=none;fillColor=none;" vertex="1" parent="1">
          <mxGeometry x="995" y="530" width="200" height="20" as="geometry" />
        </mxCell>
      </root>
    </mxGraphModel>
  </diagram>
</mxfile>
